<?xml version="1.0" encoding="UTF-8"?>
<svg width="1200px" height="751px" viewBox="0 0 1200 751" version="1.1" xmlns="http://www.w3.org/2000/svg" xmlns:xlink="http://www.w3.org/1999/xlink">
    <!-- Generator: Sketch 63.1 (92452) - https://sketch.com -->
    <title>Elon-skylt</title>
    <desc>Created with Sketch.</desc>
    <g id="Page-1" stroke="none" stroke-width="1" fill="none" fill-rule="evenodd">
        <g id="Elon-skylt" fill="#FFFFFF" fill-rule="nonzero">
            <path d="M572.375054,666.919178 C568.0277,666.919178 564.245447,663.348331 564.245447,658.789571 C564.245447,654.560115 568.0277,650.777862 572.375054,650.777862 C576.698016,650.777862 580.386763,654.560115 580.386763,658.789571 C580.386763,663.348331 576.698016,666.919178 572.375054,666.919178" id="Path"></path>
            <path d="M550.100282,666.919178 C545.636383,666.919178 541.970674,663.348331 541.970674,658.789571 C541.970674,654.560115 545.636383,650.777862 550.100282,650.777862 C554.446281,650.777862 558.111991,654.560115 558.111991,658.789571 C558.111991,663.348331 554.446281,666.919178 550.100282,666.919178" id="Path"></path>
            <path d="M710.179965,666.919178 C705.716067,666.919178 702.050358,663.348331 702.050358,658.789571 C702.050358,654.560115 705.716067,650.777862 710.179965,650.777862 C714.52732,650.777862 718.193029,654.560115 718.193029,658.789571 C718.193029,663.348331 714.52732,666.919178 710.179965,666.919178" id="Path"></path>
            <path d="M732.454738,666.919178 C728.108738,666.919178 724.32513,663.348331 724.32513,658.789571 C724.32513,654.560115 728.108738,650.777862 732.454738,650.777862 C736.779055,650.777862 740.467802,654.560115 740.467802,658.789571 C740.467802,663.348331 736.779055,666.919178 732.454738,666.919178" id="Path"></path>
            <path d="M84.7788378,136.536481 C87.3631289,105.004607 118.472192,75.6342151 158.228534,75.6342151 C187.176117,75.6342151 212.669395,90.3200888 219.1308,112.781873 L84.7788378,136.536481 Z M303.812066,156.41533 C301.22642,65.2726585 240.301117,0.0230376409 159.520002,0.0230376409 C68.8014963,0.0230376409 0.0975715525,67.8569492 0.0975715525,156.861177 C0.0975715525,247.133836 69.2243063,316.26057 161.681483,316.26057 C211.353534,316.26057 260.17861,296.406114 299.064939,257.519785 C301.64923,254.488291 301.64923,250.16533 299.064939,247.581039 L256.724306,205.240406 C254.140015,202.656114 250.239863,202.208912 247.208369,204.817595 C227.353914,221.66495 196.66766,236.772279 164.712977,236.772279 C130.99523,236.772279 107.240622,223.826431 93.4247615,199.201811 L298.196281,162.899772 C301.22642,162.476962 303.812066,159.869634 303.812066,156.41533" id="Shape"></path>
            <path d="M310.530952,475.8009 L310.530952,394.244633 L321.715091,394.244633 L321.715091,475.964874 C321.715091,499.602938 337.411915,508.084887 356.161915,508.084887 C377.637142,508.084887 389.714332,499.602938 389.714332,475.964874 L389.714332,394.244633 L400.898471,394.244633 L400.898471,475.8009 C400.898471,504.841988 383.228534,518.916685 356.161915,518.916685 C328.92861,518.916685 310.530952,504.841988 310.530952,475.8009" id="Path"></path>
            <path d="M189.267129,394.244633 L189.267129,487.876735 C189.267129,503.385191 193.23775,506.815102 210.55399,506.815102 L233.862749,506.815102 L233.862749,517.6469 L208.017129,517.6469 C186.02423,517.6469 178.08299,510.434735 178.08299,490.039571 L178.08299,394.244633 L189.267129,394.244633 Z" id="Path"></path>
            <path d="M509.873699,455.217368 C509.873699,487.87809 498.68956,506.815102 468.191674,506.815102 L437.882155,506.651127 L437.882155,405.264798 L468.191674,405.076431 C493.45051,405.076431 509.873699,422.394026 509.873699,455.217368 M426.696661,394.244633 L426.696661,517.6469 L468.191674,517.6469 C495.423623,517.6469 521.41018,505.382697 521.41018,456.134811 C521.41018,410.85619 497.068788,394.244633 468.191674,394.244633 L426.696661,394.244633 Z" id="Shape"></path>
            <path d="M273.360256,486.86714 L273.360256,394.244633 L284.732763,394.244633 L284.732763,484.869634 C284.732763,522.394026 267.580496,532.849089 244.859876,532.849089 L242.510028,532.849089 L242.510028,522.041685 L244.859876,522.041685 C265.066674,522.041685 273.360256,510.85619 273.360256,486.86714" id="Path"></path>
            <path d="M720.307079,736.163812 C707.620067,736.163812 702.168257,727.798406 702.168257,710.787077 C702.168257,696.971216 707.290763,686.280356 720.307079,686.280356 C733.441294,686.280356 738.563801,696.971216 738.563801,711.891533 C738.563801,727.798406 733.229889,736.163812 720.307079,736.163812 M720.307079,672.25309 C702.168257,672.25309 686.35489,683.507697 686.35489,711.209887 C686.35489,738.93647 703.154814,750.191078 720.307079,750.191078 C737.67075,750.191078 754.377168,738.93647 754.377168,711.209887 C754.377168,680.8299 736.120447,672.25309 720.307079,672.25309" id="Shape"></path>
            <path d="M560.227396,736.163812 C547.539029,736.163812 542.087218,727.798406 542.087218,710.787077 C542.087218,696.971216 547.209725,686.280356 560.227396,686.280356 C573.361611,686.280356 578.484118,696.971216 578.484118,711.891533 C578.484118,727.798406 573.150206,736.163812 560.227396,736.163812 M560.227396,672.25309 C542.087218,672.25309 526.275206,683.507697 526.275206,711.209887 C526.275206,738.93647 543.073775,750.191078 560.227396,750.191078 C577.591067,750.191078 594.29613,738.93647 594.29613,711.209887 C594.29613,680.8299 576.039408,672.25309 560.227396,672.25309" id="Shape"></path>
            <polygon id="Path" points="497.444168 673.146141 512.928231 673.146141 512.928231 749.298027 497.444168 749.298027 497.444168 716.332394 465.395978 716.332394 465.395978 749.298027 449.794016 749.298027 449.794016 673.146141 465.395978 673.146141 465.395978 701.975824 497.444168 701.975824"></polygon>
            <path d="M350.898471,302.444709 L350.898471,13.8619362 C350.898471,9.96313964 353.92861,6.93164579 357.805724,6.93164579 L426.086839,6.93164579 C429.962598,6.93164579 432.994092,9.96313964 432.994092,13.8619362 L432.994092,231.603697 L540.137142,231.603697 C544.014256,231.603697 547.04575,234.610798 547.04575,238.51095 L547.04575,302.444709 C547.04575,306.344861 544.014256,309.351962 540.137142,309.351962 L357.805724,309.351962 C353.92861,309.351962 350.898471,306.344861 350.898471,302.444709" id="Path"></path>
            <path d="M668.709345,457.567216 L656.984497,457.567216 C659.145978,466.237533 660.768105,473.803393 660.768105,480.664571 C660.768105,506.46276 644.179586,518.916685 612.952624,518.916685 C584.991598,518.916685 569.672864,508.437229 569.672864,482.637684 C569.672864,464.969103 580.857004,454.137305 594.743333,450.706039 C584.452244,446.030735 577.238725,437.548786 577.238725,426.364647 C577.238725,401.833532 596.716446,392.810874 616.38389,392.810874 C630.99794,392.810874 642.911156,397.51057 651.745447,407.966988 L642.911156,414.287457 C636.966067,407.0509 628.29575,403.996368 616.570902,403.996368 C593.661915,403.996368 588.798244,415.719861 588.798244,426.905356 C588.798244,437.548786 595.284042,448.003849 616.38389,448.003849 L619.084725,448.003849 L619.084725,457.567216 L609.709725,457.567216 C589.338953,457.567216 581.209345,468.399013 581.209345,482.826052 C581.209345,501.22371 590.772713,507.732546 613.140991,507.732546 C637.506776,507.732546 649.582611,500.330659 649.582611,479.230811 C649.582611,472.910343 648.31418,465.862153 645.800358,457.567216 L633.347788,457.567216 L633.347788,448.003849 L668.709345,448.003849 L668.709345,457.567216 Z" id="Path"></path>
            <path d="M656.42075,673.146141 L671.881776,673.146141 L671.881776,749.298027 L656.42075,749.298027 L624.583966,699.298027 L623.90232,699.298027 L624.348168,749.298027 L608.770598,749.298027 L608.770598,682.732546 C608.770598,676.600444 613.445902,673.26404 618.333966,673.26404 C621.786914,673.26404 625.359117,674.932242 627.591067,678.386546 L656.068409,724.016154 L656.750054,724.016154 L656.42075,673.146141 Z" id="Path"></path>
            <polygon id="Path" points="0.544774675 593.823179 1199.39695 593.823179 1199.39695 598.451052 0.544774675 598.451052"></polygon>
            <path d="M1199.84416,150.376735 L1199.84416,302.444709 C1199.84416,306.344861 1196.81266,309.351962 1192.93555,309.351962 L1124.67883,309.351962 C1120.77868,309.351962 1117.74718,306.344861 1117.74718,302.444709 L1117.74718,151.669558 C1117.74718,106.743278 1099.60836,82.1200132 1058.13774,82.1200132 C1016.21992,82.1200132 998.503903,106.743278 998.503903,148.638064 L998.503903,302.444709 C998.503903,306.344861 995.496802,309.351962 991.59665,309.351962 L923.339929,309.351962 C919.462815,309.351962 916.43132,306.344861 916.43132,302.444709 L916.43132,150.376735 C916.43132,61.3725065 968.7107,0.0230376409 1058.13774,0.0230376409 C1147.56478,0.0230376409 1199.84416,62.2411643 1199.84416,150.376735" id="Path"></path>
            <polygon id="Path" points="815.490839 394.244633 826.674978 394.244633 826.674978 517.6469 815.490839 517.6469"></polygon>
            <path d="M746.763877,447.112153 L731.42075,447.112153 L731.42075,405.428773 L746.763877,405.428773 C769.484497,405.428773 774.349523,415.719861 774.349523,426.716988 C774.349523,437.548786 767.863725,447.112153 746.763877,447.112153 M781.938422,482.826052 C781.938422,495.466988 775.970295,506.275748 756.867953,506.275748 L731.42075,506.46276 L731.42075,458.296292 L753.436687,458.296292 C773.808814,458.296292 781.938422,468.210646 781.938422,482.826052 M785.909042,426.364647 C785.909042,401.998862 766.595295,394.244633 747.304586,394.244633 L720.236611,394.244633 L720.236611,517.6469 L756.138877,517.6469 C775.617953,517.6469 793.474902,509.16495 793.474902,482.637684 C793.474902,465.15747 782.290763,453.971975 768.592801,450.353697 C778.860852,445.678393 785.909042,437.360418 785.909042,426.364647" id="Shape"></path>
            <path d="M868.169991,394.244633 L868.169991,487.876735 C868.169991,503.385191 872.140612,506.815102 889.456852,506.815102 L916.688801,506.815102 L916.688801,517.6469 L886.919991,517.6469 C864.927092,517.6469 856.985852,510.434735 856.985852,490.039571 L856.985852,394.244633 L868.169991,394.244633 Z" id="Path"></path>
            <path d="M968.640232,506.815102 L938.329358,506.651127 L938.329358,405.264798 L968.640232,405.076431 C993.899068,405.076431 1010.32226,422.394026 1010.32226,455.217368 C1010.32226,487.87809 999.138118,506.815102 968.640232,506.815102 M1021.85874,456.134811 C1021.85874,410.85619 997.517346,394.244633 968.640232,394.244633 L927.145219,394.244633 L927.145219,517.6469 L968.640232,517.6469 C995.895219,517.6469 1021.85874,505.382697 1021.85874,456.134811" id="Shape"></path>
            <path d="M719.414029,82.1200132 C761.331852,82.1200132 795.472409,112.359063 795.472409,157.706798 C795.472409,202.656114 763.493333,234.187988 719.414029,234.187988 C677.520598,234.187988 644.695902,203.501735 644.695902,157.706798 C644.695902,113.651887 677.520598,82.1200132 719.414029,82.1200132 M719.414029,316.26057 C808.86546,316.26057 877.544992,245.842368 877.544992,157.706798 C877.544992,70.0184302 810.579738,0.0230376409 719.414029,0.0230376409 C631.302851,0.0230376409 562.600282,68.7269624 562.600282,157.706798 C562.600282,246.711025 632.148471,316.26057 719.414029,316.26057" id="Shape"></path>
        </g>
    </g>
</svg>